<?xml version="1.0" encoding="UTF-8"?><svg id="a" xmlns="http://www.w3.org/2000/svg" width="46.93mm" height="28.66mm" viewBox="0 0 133.02 81.25"><defs><style>.b{fill:#2dabe3;}.c{fill:#e7267a;}.d{fill:#04ab9e;}</style></defs><path class="d" d="M121.82,14.71c-1,0-1.89.65-2.2,1.6l-7.98,24.54h-.29l-5.73-19.47c-.29-.99-1.19-1.66-2.22-1.66h-5.21c-1.12,0-2.09.81-2.28,1.92l-5.23,29.78-.36.07-5.73-19.27c-.29-.98-1.19-1.66-2.22-1.66h-3.17c-.99,0-1.87.63-2.19,1.56l-8.39,24.29-.29-.07.34-39.28c.01-1.29-1.03-2.34-2.32-2.34h-4.37c-1.55,0-2.65,1.49-2.21,2.98,1.89,6.39,2.91,13.83,2.91,22.37,0,9.06-1.15,16.98-3.27,23.76-.47,1.5.63,3.03,2.2,3.03h8.7c1,0,1.89-.65,2.2-1.6l7.98-24.54h.29l5.73,19.48c.29.99,1.19,1.66,2.22,1.66h5.21c1.12,0,2.09-.81,2.28-1.92l5.23-29.78.36-.07,5.73,19.27c.29.98,1.19,1.66,2.22,1.66h3.17c.99,0,1.87-.63,2.19-1.56l8.39-24.29.29.07,2.5,39.45c.08,1.22,1.09,2.17,2.31,2.17h2.08c1.33,0,2.39-1.12,2.31-2.45l-2.73-47.5c-.07-1.22-1.09-2.18-2.31-2.18h-6.15Z"/><path class="b" d="M44.96,40.35c0,13.13-3.99,22.27-10.62,27.42l2.66,4.5c7.73-6.01,12.39-16.66,12.39-31.98s-4.6-25.48-12.24-31.21l-2.68,4.53c6.55,4.92,10.49,13.7,10.49,26.75"/><path class="b" d="M53.82,40.2c0,17.51-5.33,29.69-14.15,36.55l2.66,4.5c9.93-7.72,15.92-21.42,15.92-41.12S52.33,7.37,42.51,0l-2.68,4.53c8.73,6.56,13.99,18.27,13.99,35.67"/><path class="c" d="M0,40.85C0,24.43,4.03,13.85,18.79,13.85s17.64,10.44,17.64,26.07c0,17.21-3.67,27.87-18.36,27.87S0,57.34,0,40.85M28.15,40.56c0-13.61-1.08-20.31-9.58-20.31s-10.23,6.7-10.23,20.74,1.37,20.59,9.94,20.59,9.86-7.13,9.86-21.03M13.97,40.71c0-3.6,1.87-5.26,4.46-5.26s4.39,1.66,4.39,5.26-1.8,5.4-4.39,5.4-4.46-1.8-4.46-5.4"/></svg>